<?xml version="1.0" standalone="no"?>
<!DOCTYPE svg PUBLIC "-//W3C//DTD SVG 20010904//EN"
 "http://www.w3.org/TR/2001/REC-SVG-20010904/DTD/svg10.dtd">
<svg version="1.0" xmlns="http://www.w3.org/2000/svg"
 width="260.000000pt" height="260.000000pt" viewBox="0 0 260.000000 260.000000"
 preserveAspectRatio="xMidYMid meet">
<metadata>
Created by potrace 1.11, written by Peter Selinger 2001-2013
</metadata>
<g transform="translate(0.000000,260.000000) scale(0.100000,-0.100000)"
fill="#000000" stroke="none">
<path d="M590 2305 l0 -75 -145 0 -145 0 0 -75 0 -75 -75 0 -75 0 0 -165 0
-165 -75 0 -75 0 0 -300 0 -300 75 0 75 0 0 -150 0 -150 75 0 75 0 0 -90 0
-90 145 0 145 0 0 -75 0 -75 245 0 245 0 0 -75 0 -75 145 0 145 0 0 -75 0 -75
320 0 320 0 0 75 0 75 145 0 145 0 0 75 0 75 75 0 75 0 0 165 0 165 75 0 75 0
0 300 0 300 -75 0 -75 0 0 150 0 150 -75 0 -75 0 0 90 0 90 -145 0 -145 0 0
75 0 75 -245 0 -245 0 0 75 0 75 -145 0 -145 0 0 75 0 75 -320 0 -320 0 0 -75z
m490 -465 l0 -90 -75 0 -75 0 0 -150 0 -150 -75 0 -75 0 0 -225 0 -225 -95 0
-95 0 0 75 0 75 -70 0 -70 0 0 300 0 300 70 0 70 0 0 90 0 90 245 0 245 0 0
-90z m930 -315 l0 -75 70 0 70 0 0 -300 0 -300 -70 0 -70 0 0 -90 0 -90 -245
0 -245 0 0 90 0 90 75 0 75 0 0 150 0 150 75 0 75 0 0 225 0 225 95 0 95 0 0
-75z m-640 -225 l0 -150 -70 0 -70 0 0 150 0 150 70 0 70 0 0 -150z"/>
</g>
</svg>
